<?xml version="1.0" encoding="utf-8"?>

<svg version="1.1" id="Layer_1" xmlns="http://www.w3.org/2000/svg" xmlns:xlink="http://www.w3.org/1999/xlink" x="0px" y="0px"
	 viewBox="0 0 109.1 26.2" style="enable-background:new 0 0 109.1 26.2;" xml:space="preserve">
<style type="text/css">
	.st0{fill:#FC4700;}
</style>
<title>Artnet</title>
<g id="Layer_2">
	<g id="Layer_1-2">
		<path class="st0" d="M47.5,20.4c-0.5,0.1-1.1,0.2-1.6,0.2c-0.7,0-0.8-0.3-0.8-1.7v-8.3h4.2V6h-4.2V0l-6.5,0.9V6h-3.4v4.6h3.4v9
			c-0.1,1.2,0.1,2.5,0.6,3.6c0.9,1.8,2.9,2.8,5.4,2.8c1.3,0,2.6-0.2,3.9-0.6l2.3-0.6l-1.2-4.8L47.5,20.4z"/>
		<path class="st0" d="M10.3,20.3c-0.6,0.7-1.4,1-2.3,1.1c-1,0-1.8-0.8-1.9-1.8c0,0,0-0.1,0-0.1c0-1.2,0.7-2.2,4.3-2.3L10.3,20.3z
			 M16.5,19.4l0.1-7.5c0-0.9,0-1.7-0.3-2.6c-0.8-2.6-3.5-4-7.3-4c-1.8,0-3.6,0.2-5.4,0.8C2.9,6.3,2.2,6.6,1.5,7l1.7,4.4l1.5-0.6
			c1.3-0.4,2.6-0.6,3.9-0.6c1.6,0,1.8,0.4,1.9,2v0.6c-2.3-0.1-4.6,0.3-6.7,1.1c-2.4,0.9-3.9,3.2-3.8,5.7c0,3.7,2.6,6.1,6.7,6.1
			c1.7,0.1,3.3-0.5,4.7-1.5l0.1,0l0.9,1.9l5.5-2.1l-0.4-1C16.7,22,16.4,20.6,16.5,19.4"/>
		<path class="st0" d="M30.5,5.3c-1.8,0-3.1,0.6-4.6,2.2l-1-2.5l-5.9,1.9l0.4,0.8c0.1,0.3,0.4,0.9,0.4,0.9c0.6,1.3,0.9,2.8,0.8,4.3
			v12.4h6.4V12.1c0.6-0.7,1.4-1.2,2.3-1.3c0.4,0,0.9,0.1,1.3,0.2l1.1,0.4l2.1-5.2l-1.2-0.5C31.9,5.5,31.2,5.3,30.5,5.3"/>
		<path class="st0" d="M65.2,5.3c-2,0-4,0.6-5.6,1.8h0l-1-2.4l-6,2.1l0.2,0.6C53,7.7,53.1,8,53.1,8c0.5,1.2,0.8,2.4,0.7,3.7v13.6
			h6.4V11.5c0.8-0.7,1.8-1.1,2.8-1.2c0.8,0,1.6,0.2,1.6,2.4v12.6h6.4V11.8C71.1,7.4,69.1,5.3,65.2,5.3"/>
		<path class="st0" d="M105.6,20.4c-0.5,0.1-1,0.2-1.6,0.2c-0.7,0-0.8-0.3-0.8-1.7v-8.3h4.2V6h-4.2V0l-6.5,0.9V6h-3.4v4.6h3.4v9
			c-0.1,1.2,0.1,2.5,0.6,3.6c0.9,1.8,2.9,2.8,5.4,2.8c1.3,0,2.6-0.2,3.9-0.6l2.2-0.6l-1.2-4.8L105.6,20.4z"/>
		<path class="st0" d="M80.2,12.9c0.4-2.5,1.2-3,2.6-3c1.1,0,2,0.2,2.1,3H80.2z M83,5.3c-5.6,0-9.3,4.2-9.3,10.5
			c0,6.5,3.3,10.2,9.5,10.2c1.8,0,3.5-0.3,5.2-0.9c0,0,1.3-0.5,1.6-0.6s1.5-0.6,1.5-0.6l-2.1-4.5l-1.5,0.6c-1.4,0.6-2.8,0.9-4.2,1
			c-2.3,0-3.4-1-3.6-3.3v-0.1h11.5V16C91.5,8.9,88.6,5.4,83,5.3"/>
	</g>
</g>
</svg>
